0
SECTION
2
HEADER
9
$INSUNITS
70
4
9
$ACADVER
1
AC1014
9
$HANDSEED
5
FFFF
0
ENDSEC
0
SECTION
2
TABLES
0
TABLE
2
VPORT
5
8
100
AcDbSymbolTable
0
ENDTAB
0
TABLE
2
LTYPE
5
5
100
AcDbSymbolTable
0
LTYPE
5
14
100
AcDbSymbolTableRecord
100
AcDbLinetypeTableRecord
2
BYBLOCK
70
0
0
LTYPE
5
15
100
AcDbSymbolTableRecord
100
AcDbLinetypeTableRecord
2
BYLAYER
70
0
0
ENDTAB
0
TABLE
2
LAYER
5
2
100
AcDbSymbolTable
70
2
0
LAYER
5
50
100
AcDbSymbolTableRecord
100
AcDbLayerTableRecord
2
0
70
0
6
CONTINUOUS
0
ENDTAB
0
TABLE
2
STYLE
5
3
100
AcDbSymbolTable
70
1
0
STYLE
5
11
100
AcDbSymbolTableRecord
100
AcDbTextStyleTableRecord
2
STANDARD
70
0
0
ENDTAB
0
TABLE
2
VIEW
5
6
100
AcDbSymbolTable
70
0
0
ENDTAB
0
TABLE
2
UCS
5
7
100
AcDbSymbolTable
70
0
0
ENDTAB
0
TABLE
2
APPID
5
9
100
AcDbSymbolTable
70
2
0
APPID
5
12
100
AcDbSymbolTableRecord
100
AcDbRegAppTableRecord
2
ACAD
70
0
0
ENDTAB
0
TABLE
2
DIMSTYLE
5
A
100
AcDbSymbolTable
70
1
0
ENDTAB
0
TABLE
2
BLOCK_RECORD
5
1
100
AcDbSymbolTable
70
1
0
BLOCK_RECORD
5
1F
100
AcDbSymbolTableRecord
100
AcDbBlockTableRecord
2
*MODEL_SPACE
0
BLOCK_RECORD
5
1B
100
AcDbSymbolTableRecord
100
AcDbBlockTableRecord
2
*PAPER_SPACE
0
ENDTAB
0
ENDSEC
0
SECTION
2
BLOCKS
0
BLOCK
5
20
100
AcDbEntity
100
AcDbBlockBegin
2
*MODEL_SPACE
0
ENDBLK
5
21
100
AcDbEntity
100
AcDbBlockEnd
0
BLOCK
5
1C
100
AcDbEntity
100
AcDbBlockBegin
2
*PAPER_SPACE
0
ENDBLK
5
1D
100
AcDbEntity
100
AcDbBlockEnd
0
ENDSEC
0
SECTION
2
ENTITIES
0
LWPOLYLINE
5
100
100
AcDbEntity
8
0
100
AcDbPolyline
90
4
70
1
43
0.0
10
-38.000000000000341
20
117
10
-38.000000000000341
20
120
10
-88.000000000000369
20
120
10
-88.000000000000369
20
117
0
CIRCLE
5
101
100
AcDbEntity
8
0
100
AcDbCircle
10
-13
20
141
30
0
40
1.5500000000000003
210
0
220
0
230
1
0
CIRCLE
5
102
100
AcDbEntity
8
0
100
AcDbCircle
10
-61.000000000000007
20
141
30
0
40
1.5500000000000025
210
0
220
0
230
1
0
LWPOLYLINE
5
103
100
AcDbEntity
8
0
100
AcDbPolyline
90
4
70
1
43
0.0
10
-3.0000000000000004
20
156
10
-3.0000000000000004
20
131
10
0
20
131
10
0
20
156
0
LWPOLYLINE
5
104
100
AcDbEntity
8
0
100
AcDbPolyline
90
4
70
1
43
0.0
10
-3.0000000000000004
20
92
10
-3.0000000000000004
20
31.999999999999993
10
0
20
31.999999999999993
10
0
20
92
0
LINE
5
105
100
AcDbEntity
8
0
100
AcDbLine
10
-123.0000000000007
20
117
30
0
11
-119.99999999999999
21
117
31
0
0
LINE
5
106
100
AcDbEntity
8
0
100
AcDbLine
10
-119.99999999999999
20
117
30
0
11
-119.99999999999999
21
101
31
0
0
LINE
5
107
100
AcDbEntity
8
0
100
AcDbLine
10
-119.99999999999999
20
101
30
0
11
-122.99999999999999
21
101
31
0
0
LINE
5
108
100
AcDbEntity
8
0
100
AcDbLine
10
-122.99999999999999
20
101
30
0
11
-122.99999999999999
21
76
31
0
0
LINE
5
109
100
AcDbEntity
8
0
100
AcDbLine
10
-122.99999999999999
20
76
30
0
11
-119.99999999999999
21
76
31
0
0
LINE
5
110
100
AcDbEntity
8
0
100
AcDbLine
10
-119.99999999999999
20
76
30
0
11
-119.99999999999999
21
40
31
0
0
LINE
5
111
100
AcDbEntity
8
0
100
AcDbLine
10
-119.99999999999999
20
40
30
0
11
-122.99999999999999
21
40
31
0
0
LINE
5
112
100
AcDbEntity
8
0
100
AcDbLine
10
-122.99999999999999
20
40
30
0
11
-122.99999999999999
21
15
31
0
0
LINE
5
113
100
AcDbEntity
8
0
100
AcDbLine
10
-122.99999999999999
20
15
30
0
11
-119.99999999999999
21
15
31
0
0
LINE
5
114
100
AcDbEntity
8
0
100
AcDbLine
10
-119.99999999999999
20
15
30
0
11
-119.99999999999999
21
0
31
0
0
LINE
5
115
100
AcDbEntity
8
0
100
AcDbLine
10
-119.99999999999999
20
0
30
0
11
-97.311443092514764
21
0
31
0
0
SPLINE
5
116
100
AcDbEntity
8
0
100
AcDbSpline
70
4
71
5
72
21
73
15
74
0
42
0.000000001
43
0.0000000001
44
0.0000000001
40
0
40
0
40
0
40
0
40
0
40
0
40
0.10000000000000001
40
0.20000000000000001
40
0.30000000000000004
40
0.40000000000000002
40
0.5
40
0.59999999999999998
40
0.69999999999999996
40
0.79999999999999993
40
0.89999999999999991
40
1
40
1
40
1
40
1
40
1
40
1
41
1
41
1
41
1
41
1
41
1
41
1
41
1
41
1
41
1
41
1
41
1
41
1
41
1
41
1
41
1
10
-97.311443092514764
20
-3.603419127408053e-15
30
0
10
-97.373456394909113
20
1.8625656212355692
30
0
10
-97.434216616501288
20
5.5248101662126814
30
0
10
-97.335570153101699
20
10.829529170858256
30
0
10
-96.818116462374149
20
17.518878854453583
30
0
10
-95.482607527608465
20
25.196007239944617
30
0
10
-93.390375888458635
20
32.120954302676175
30
0
10
-90.468635943745028
20
38.221371255616852
30
0
10
-86.660033531142886
20
43.440248140638914
30
0
10
-81.970910037486405
20
47.78388828748681
30
0
10
-76.455886982252551
20
51.306585411056361
30
0
10
-71.431374398879868
20
53.515924781678976
30
0
10
-67.339475097088098
20
54.851355981479763
30
0
10
-64.470069835850992
20
55.601020084430914
30
0
10
-63.000000000000341
20
55.940697182762797
30
0
0
SPLINE
5
117
100
AcDbEntity
8
0
100
AcDbSpline
70
4
71
5
72
21
73
15
74
0
42
0.000000001
43
0.0000000001
44
0.0000000001
40
0
40
0
40
0
40
0
40
0
40
0
40
0.10000000000000001
40
0.20000000000000001
40
0.30000000000000004
40
0.40000000000000002
40
0.5
40
0.59999999999999998
40
0.69999999999999996
40
0.79999999999999993
40
0.89999999999999991
40
1
40
1
40
1
40
1
40
1
40
1
41
1
41
1
41
1
41
1
41
1
41
1
41
1
41
1
41
1
41
1
41
1
41
1
41
1
41
1
41
1
10
-28.688556907485943
20
0
30
0
10
-28.626543605091594
20
1.8625656212355728
30
0
10
-28.565783383499422
20
5.5248101662126849
30
0
10
-28.664429846899008
20
10.829529170858262
30
0
10
-29.18188353762655
20
17.518878854453586
30
0
10
-30.517392472392228
20
25.19600723994462
30
0
10
-32.609624111542061
20
32.120954302676182
30
0
10
-35.531364056255676
20
38.221371255616859
30
0
10
-39.339966468857831
20
43.440248140638921
30
0
10
-44.029089962514291
20
47.783888287486818
30
0
10
-49.544113017748153
20
51.306585411056375
30
0
10
-54.568625601120829
20
53.515924781678983
30
0
10
-58.660524902912606
20
54.85135598147977
30
0
10
-61.529930164149704
20
55.601020084430921
30
0
10
-63.000000000000355
20
55.940697182762804
30
0
0
LINE
5
118
100
AcDbEntity
8
0
100
AcDbLine
10
-28.688556907485943
20
0
30
0
11
-2.9999999999999982
21
0
31
0
0
LINE
5
119
100
AcDbEntity
8
0
100
AcDbLine
10
-2.9999999999999982
20
0
30
0
11
-3.0000000000000004
21
3.0000000000000071
31
0
0
LINE
5
120
100
AcDbEntity
8
0
100
AcDbLine
10
-3.0000000000000004
20
3.0000000000000071
30
0
11
3.0000000000000004
21
3.0000000000000071
31
0
0
LINE
5
121
100
AcDbEntity
8
0
100
AcDbLine
10
3.0000000000000004
20
3.0000000000000071
30
0
11
3.0000000000000004
21
162
31
0
0
LINE
5
122
100
AcDbEntity
8
0
100
AcDbLine
10
3.0000000000000004
20
162
30
0
11
-76
21
162
31
0
0
LINE
5
123
100
AcDbEntity
8
0
100
AcDbLine
10
-76
20
162
30
0
11
-76
21
126
31
0
0
LINE
5
124
100
AcDbEntity
8
0
100
AcDbLine
10
-76
20
126
30
0
11
-123.0000000000007
21
126
31
0
0
LINE
5
125
100
AcDbEntity
8
0
100
AcDbLine
10
-123.0000000000007
20
126
30
0
11
-123.0000000000007
21
117
31
0
0
LINE
5
126
100
AcDbEntity
8
0
100
AcDbLine
10
-119.99999999999999
20
15
30
-8.8817841970012523e-15
11
-119.99999999999999
21
0
31
-8.8817841970012523e-15
0
LINE
5
127
100
AcDbEntity
8
0
100
AcDbLine
10
-119.99999999999999
20
0
30
-8.8817841970012523e-15
11
-97.311443092514764
21
0
31
-8.8817841970012523e-15
0
SPLINE
5
128
100
AcDbEntity
8
0
100
AcDbSpline
70
4
71
5
72
21
73
15
74
0
42
0.000000001
43
0.0000000001
44
0.0000000001
40
0
40
0
40
0
40
0
40
0
40
0
40
0.10000000000000001
40
0.20000000000000001
40
0.30000000000000004
40
0.40000000000000002
40
0.5
40
0.59999999999999998
40
0.69999999999999996
40
0.79999999999999993
40
0.89999999999999991
40
1
40
1
40
1
40
1
40
1
40
1
41
1
41
1
41
1
41
1
41
1
41
1
41
1
41
1
41
1
41
1
41
1
41
1
41
1
41
1
41
1
10
-97.311443092514764
20
-3.603419127408053e-15
30
-8.8817841970012523e-15
10
-97.373456394909113
20
1.8625656212355692
30
-8.8817841970012523e-15
10
-97.434216616501288
20
5.5248101662126814
30
-8.8817841970012523e-15
10
-97.335570153101699
20
10.829529170858256
30
-8.8817841970012523e-15
10
-96.818116462374149
20
17.518878854453583
30
-8.8817841970012523e-15
10
-95.482607527608465
20
25.196007239944617
30
-8.8817841970012523e-15
10
-93.390375888458635
20
32.120954302676175
30
-8.8817841970012523e-15
10
-90.468635943745028
20
38.221371255616852
30
-8.8817841970012523e-15
10
-86.660033531142886
20
43.440248140638914
30
-8.8817841970012523e-15
10
-81.970910037486405
20
47.78388828748681
30
-8.8817841970012523e-15
10
-76.455886982252551
20
51.306585411056361
30
-8.8817841970012523e-15
10
-71.431374398879868
20
53.515924781678976
30
-8.8817841970012523e-15
10
-67.339475097088098
20
54.851355981479763
30
-8.8817841970012523e-15
10
-64.470069835850992
20
55.601020084430914
30
-8.8817841970012523e-15
10
-63.000000000000341
20
55.940697182762797
30
-8.8817841970012523e-15
0
SPLINE
5
129
100
AcDbEntity
8
0
100
AcDbSpline
70
4
71
5
72
21
73
15
74
0
42
0.000000001
43
0.0000000001
44
0.0000000001
40
-1
40
-1
40
-1
40
-1
40
-1
40
-1
40
-0.89999999999999991
40
-0.79999999999999993
40
-0.69999999999999996
40
-0.59999999999999998
40
-0.5
40
-0.40000000000000002
40
-0.30000000000000004
40
-0.20000000000000001
40
-0.10000000000000001
40
0
40
0
40
0
40
0
40
0
40
0
41
1
41
1
41
1
41
1
41
1
41
1
41
1
41
1
41
1
41
1
41
1
41
1
41
1
41
1
41
1
10
-63.000000000000355
20
55.940697182762804
30
-8.8817841970012523e-15
10
-61.529930164149704
20
55.601020084430921
30
-8.8817841970012523e-15
10
-58.660524902912606
20
54.85135598147977
30
-8.8817841970012523e-15
10
-54.568625601120829
20
53.515924781678983
30
-8.8817841970012523e-15
10
-49.544113017748153
20
51.306585411056375
30
-8.8817841970012523e-15
10
-44.029089962514291
20
47.783888287486818
30
-8.8817841970012523e-15
10
-39.339966468857831
20
43.440248140638921
30
-8.8817841970012523e-15
10
-35.531364056255676
20
38.221371255616859
30
-8.8817841970012523e-15
10
-32.609624111542061
20
32.120954302676182
30
-8.8817841970012523e-15
10
-30.517392472392228
20
25.19600723994462
30
-8.8817841970012523e-15
10
-29.18188353762655
20
17.518878854453586
30
-8.8817841970012523e-15
10
-28.664429846899008
20
10.829529170858262
30
-8.8817841970012523e-15
10
-28.565783383499422
20
5.5248101662126849
30
-8.8817841970012523e-15
10
-28.626543605091594
20
1.8625656212355728
30
-8.8817841970012523e-15
10
-28.688556907485943
20
0
30
-8.8817841970012523e-15
0
LINE
5
130
100
AcDbEntity
8
0
100
AcDbLine
10
-28.688556907485939
20
1.7288424203449021e-15
30
-8.8817841970012523e-15
11
-2.9999999999999982
21
0
31
-8.8817841970012523e-15
0
LINE
5
131
100
AcDbEntity
8
0
100
AcDbLine
10
-2.9999999999999982
20
0
30
-8.8817841970012523e-15
11
-3.0000000000000004
21
3.0000000000000071
31
-8.8817841970012523e-15
0
LINE
5
132
100
AcDbEntity
8
0
100
AcDbLine
10
-3.0000000000000004
20
3.0000000000000071
30
-8.8817841970012523e-15
11
3.0000000000000004
21
3.0000000000000071
31
-8.8817841970012523e-15
0
LINE
5
133
100
AcDbEntity
8
0
100
AcDbLine
10
3.0000000000000004
20
3.0000000000000071
30
-8.8817841970012523e-15
11
3.0000000000000004
21
162
31
-8.8817841970012523e-15
0
LINE
5
134
100
AcDbEntity
8
0
100
AcDbLine
10
3.0000000000000004
20
162
30
-8.8817841970012523e-15
11
-76
21
162
31
-8.8817841970012523e-15
0
LINE
5
135
100
AcDbEntity
8
0
100
AcDbLine
10
-76
20
162
30
-8.8817841970012523e-15
11
-76
21
126
31
-8.8817841970012523e-15
0
LINE
5
136
100
AcDbEntity
8
0
100
AcDbLine
10
-76
20
126
30
-8.8817841970012523e-15
11
-123.0000000000007
21
126
31
-8.8817841970012523e-15
0
LINE
5
137
100
AcDbEntity
8
0
100
AcDbLine
10
-123.0000000000007
20
126
30
-8.8817841970012523e-15
11
-123.0000000000007
21
117
31
-8.8817841970012523e-15
0
LINE
5
138
100
AcDbEntity
8
0
100
AcDbLine
10
-123.0000000000007
20
117
30
-8.8817841970012523e-15
11
-119.99999999999999
21
117
31
-8.8817841970012523e-15
0
LINE
5
139
100
AcDbEntity
8
0
100
AcDbLine
10
-119.99999999999999
20
117
30
-8.8817841970012523e-15
11
-119.99999999999999
21
101
31
-8.8817841970012523e-15
0
LINE
5
140
100
AcDbEntity
8
0
100
AcDbLine
10
-119.99999999999999
20
101
30
-8.8817841970012523e-15
11
-122.99999999999999
21
101
31
-8.8817841970012523e-15
0
LINE
5
141
100
AcDbEntity
8
0
100
AcDbLine
10
-122.99999999999999
20
101
30
-8.8817841970012523e-15
11
-122.99999999999999
21
76
31
-8.8817841970012523e-15
0
LINE
5
142
100
AcDbEntity
8
0
100
AcDbLine
10
-122.99999999999999
20
76
30
-8.8817841970012523e-15
11
-119.99999999999999
21
76
31
-8.8817841970012523e-15
0
LINE
5
143
100
AcDbEntity
8
0
100
AcDbLine
10
-119.99999999999999
20
76
30
-8.8817841970012523e-15
11
-119.99999999999999
21
40
31
-8.8817841970012523e-15
0
LINE
5
144
100
AcDbEntity
8
0
100
AcDbLine
10
-119.99999999999999
20
40
30
-8.8817841970012523e-15
11
-122.99999999999999
21
40
31
-8.8817841970012523e-15
0
LINE
5
145
100
AcDbEntity
8
0
100
AcDbLine
10
-122.99999999999999
20
40
30
-8.8817841970012523e-15
11
-122.99999999999999
21
15
31
-8.8817841970012523e-15
0
LINE
5
146
100
AcDbEntity
8
0
100
AcDbLine
10
-122.99999999999999
20
15
30
-8.8817841970012523e-15
11
-119.99999999999999
21
15
31
-8.8817841970012523e-15
0
LWPOLYLINE
5
147
100
AcDbEntity
8
0
100
AcDbPolyline
90
4
70
1
43
0.0
10
-3.0000000000000004
20
92
10
-3.0000000000000004
20
31.999999999999993
10
0
20
31.999999999999993
10
0
20
92
0
LWPOLYLINE
5
148
100
AcDbEntity
8
0
100
AcDbPolyline
90
4
70
1
43
0.0
10
-3.0000000000000004
20
156
10
-3.0000000000000004
20
131
10
0
20
131
10
0
20
156
0
CIRCLE
5
149
100
AcDbEntity
8
0
100
AcDbCircle
10
-61.000000000000007
20
141
30
-8.8817841970012523e-15
40
1.5500000000000025
210
0
220
-0
230
1
0
CIRCLE
5
150
100
AcDbEntity
8
0
100
AcDbCircle
10
-13
20
141
30
-8.8817841970012523e-15
40
1.5500000000000003
210
0
220
-0
230
1
0
LWPOLYLINE
5
151
100
AcDbEntity
8
0
100
AcDbPolyline
90
4
70
1
43
0.0
10
-38.000000000000341
20
117
10
-38.000000000000341
20
120
10
-88.000000000000369
20
120
10
-88.000000000000369
20
117
0
CIRCLE
5
152
100
AcDbEntity
8
0
100
AcDbCircle
10
-37
20
141
30
0
40
15.499999999999998
210
0
220
0
230
1
0
CIRCLE
5
153
100
AcDbEntity
8
0
100
AcDbCircle
10
-37
20
141
30
-8.8817841970012523e-15
40
15.499999999999998
210
0
220
-0
230
1
0
ENDSEC
0
SECTION
2
OBJECTS
0
DICTIONARY
5
C
100
AcDbDictionary
3
ACAD_GROUP
350
D
3
ACAD_MLINESTYLE
350
17
0
DICTIONARY
5
D
100
AcDbDictionary
0
DICTIONARY
5
1A
330
C
100
AcDbDictionary
0
DICTIONARY
5
17
100
AcDbDictionary
0
ENDSEC
0
EOF
